<svg width="31" height="31" viewBox="0 0 31 31" fill="none" xmlns="http://www.w3.org/2000/svg">
<path d="M0 4C0 1.79086 1.79086 0 4 0H27C29.2091 0 31 1.79086 31 4V27C31 29.2091 29.2091 31 27 31H4C1.79086 31 0 29.2091 0 27V4Z" fill="white"/>
<path d="M14.416 24.384C13.088 24.384 11.96 24.104 11.032 23.544C10.12 22.984 9.41603 22.224 8.92003 21.264C8.44003 20.288 8.19203 19.176 8.17603 17.928L11.848 17.76C11.864 18.976 12.096 19.872 12.544 20.448C12.992 21.024 13.616 21.312 14.416 21.312C15.232 21.312 15.864 21.032 16.312 20.472C16.76 19.912 16.984 19.048 16.984 17.88V6.95996H20.632V17.88C20.632 19.208 20.368 20.36 19.84 21.336C19.328 22.312 18.608 23.064 17.68 23.592C16.752 24.12 15.664 24.384 14.416 24.384Z" fill="black"/>
</svg>
