<svg xmlns="http://www.w3.org/2000/svg" fill="none" viewBox="0 0 24 24"><path stroke="currentColor" stroke-linecap="round" stroke-width="1.5" d="m4.012 15.762 1.69-5.069c.766-2.298 1.149-3.447 2.055-3.66.906-.215 1.763.642 3.475 2.355l3.38 3.379c1.712 1.713 2.569 2.57 2.355 3.475s-1.363 1.29-3.661 2.055l-5.069 1.69c-2.765.922-4.148 1.383-4.878.653s-.269-2.113.653-4.878Z"/><path stroke="currentColor" stroke-linecap="round" stroke-width="1.5" d="M12.235 18.346s-.758-2.281-.758-3.79c0-1.51.758-3.792.758-3.792m-4.17 8.72s-.64-2.753-.758-4.55c-.195-2.969.758-7.581.758-7.581" opacity=".5"/><path stroke="currentColor" stroke-linecap="round" stroke-width="1.5" d="m14.51 10.006.143-.72c.146-.727.67-1.32 1.373-1.554a2.07 2.07 0 0 0 1.372-1.555l.144-.72m.028 7.796.212.123c.657.38 1.483.296 2.051-.207a1.76 1.76 0 0 1 1.876-.297L22 13M9.795 2.78A1.4 1.4 0 0 0 10 4.5l.097.098c.394.393.539.97.378 1.503"/><path fill="currentColor" d="M6.928 3.94a.537.537 0 1 1 .758.76.537.537 0 0 1-.758-.76m5.229 3.217a.536.536 0 1 1 .759.758.536.536 0 0 1-.759-.758m5 3a.536.536 0 1 1 .758.757.536.536 0 0 1-.758-.757m1.901 5.156a.536.536 0 1 1 .758.757.536.536 0 0 1-.758-.757" opacity=".5"/><path fill="currentColor" d="m19.173 10.328-.486.12.073.293.292.072zM21 8.5h-.5a.5.5 0 0 0 .5.5zm-1.829 1.828.486-.12v-.002l-.004-.014-.012-.055-.042-.212a6 6 0 0 1-.085-.684q-.03-.375.027-.748c.04-.23.11-.36.173-.425l-.707-.707c-.27.27-.393.634-.45.957-.06.33-.06.68-.04.986q.035.566.162 1.116l.005.02.001.005v.002h.001zm.543-2.26c.243-.243.435-.224.524-.183.096.044.264.204.262.614l1 .002c.001-.684-.297-1.272-.843-1.524-.554-.256-1.183-.083-1.65.384zm-.543 2.26-.119.485.002.001.006.002.02.004.07.016q.09.02.247.05c.205.036.49.078.798.098.306.02.656.018.986-.04.324-.058.687-.18.958-.452l-.707-.707c-.065.064-.196.133-.426.174-.222.04-.484.044-.747.027a6 6 0 0 1-.965-.143h-.003zm2.968.164c.467-.467.64-1.096.384-1.65-.253-.546-.84-.844-1.525-.842L21 9c.41 0 .571.165.615.262.04.088.06.28-.183.523z"/><path stroke="currentColor" d="m15.188 3.417-.027.098c-.03.106-.046.16-.039.212s.036.098.093.19l.053.081c.201.32.302.48.234.611-.07.131-.262.146-.648.176l-.1.008c-.11.01-.164.013-.212.038s-.084.068-.155.155l-.065.08c-.25.303-.375.455-.518.436s-.21-.198-.341-.555l-.034-.092c-.038-.102-.056-.152-.093-.19-.037-.036-.088-.055-.189-.092l-.092-.034c-.357-.132-.535-.198-.555-.34-.02-.144.133-.27.437-.52l.079-.065c.086-.07.13-.106.155-.154s.03-.103.038-.213l.008-.1c.03-.385.045-.578.175-.647.131-.069.291.032.611.234l.083.052c.09.058.136.086.189.093s.105-.008.212-.038l.097-.027c.376-.107.563-.16.664-.06.1.1.047.288-.06.663Z" opacity=".5"/></svg>
