<svg xmlns="http://www.w3.org/2000/svg" fill="none" viewBox="0 0 24 24"><path fill="currentColor" fill-rule="evenodd" d="M18.298 5.683c-.38.068-.916.244-1.776.53L10.03 8.378c-.828.276-1.412.47-1.832.635a5 5 0 0 0-.452.199c-.086.045-.116.07-.118.07a1 1 0 0 0 0 1.437q.057.04.118.07c.1.054.245.119.452.2.42.164 1.004.359 1.832.635l.056.019c.273.09.513.17.734.287a3 3 0 0 1 1.25 1.25c.117.22.197.46.287.734l.02.056c.275.828.47 1.412.634 1.832q.085.233.199.452c.045.086.07.116.07.118a1 1 0 0 0 1.437 0 1 1 0 0 0 .07-.118c.054-.1.119-.245.2-.453.164-.42.359-1.003.635-1.83l2.163-6.491c.287-.86.463-1.398.53-1.777l.005-.023zm-.35-1.97c.55-.097 1.305-.126 1.885.454s.55 1.334.453 1.885c-.096.542-.323 1.22-.578 1.987L17.51 14.63c-.264.792-.474 1.424-.66 1.896-.172.445-.377.905-.687 1.227a3 3 0 0 1-4.326 0c-.31-.322-.515-.782-.688-1.227-.185-.472-.395-1.104-.66-1.897l-.01-.028c-.12-.361-.147-.433-.176-.488a1 1 0 0 0-.417-.417c-.055-.03-.127-.056-.488-.177l-.028-.01c-.793-.264-1.425-.474-1.898-.66-.444-.172-.904-.377-1.226-.687a3 3 0 0 1 0-4.326c.322-.31.782-.515 1.226-.688q.942-.351 1.898-.66l.028-.01 6.563-2.187c.766-.255 1.445-.482 1.987-.578" clip-rule="evenodd"/></svg>
